<svg width="160" height="27" viewBox="0 0 160 27" fill="none" xmlns="http://www.w3.org/2000/svg">
<g clip-path="url(#clip0_38_126)">
<g clip-path="url(#clip1_38_126)">
<path d="M24.7144 18.8168C23.672 20.7307 22.1531 22.3492 20.3018 23.5187C18.4505 24.6881 16.3281 25.3698 14.136 25.4992C11.9439 25.6285 9.75473 25.201 7.77633 24.2575C5.79785 23.3139 4.09567 21.8854 2.83125 20.1077C1.56682 18.3298 0.782089 16.2616 0.551489 14.0992C0.320892 11.9368 0.652078 9.75196 1.51363 7.75188C2.37518 5.75178 3.73853 4.00282 5.47432 2.6709C7.21012 1.33899 9.26084 0.468286 11.4318 0.141399C11.7546 0.0930663 12.0854 0.0554736 12.4135 0.0339921C12.7416 0.0125107 13.0508 -0.000915289 13.3708 -0.000915289C15.0663 -0.00124036 16.745 0.330771 18.3103 0.975972C19.8755 1.62118 21.2963 2.56681 22.4907 3.75834C22.7827 4.0457 22.9475 4.43614 22.9487 4.84378C22.95 5.25142 22.7877 5.64287 22.4974 5.932C22.2072 6.22114 21.8129 6.38428 21.4012 6.38554C20.9896 6.38679 20.5942 6.22607 20.3022 5.93871C19.3007 4.93327 18.0891 4.157 16.7525 3.66436L16.4813 3.5677C14.7187 2.98278 12.824 2.90832 11.0202 3.35308C9.21626 3.79783 7.57815 4.74331 6.29836 6.07834C4.5596 7.87748 3.58908 10.2716 3.58908 12.7618C3.58908 15.252 4.5596 17.6461 6.29836 19.4452C7.36506 20.5509 8.68098 21.391 10.1384 21.8966C11.596 22.4022 13.1536 22.5591 14.684 22.3543C16.2145 22.1494 17.6742 21.5888 18.9438 20.7182C20.2135 19.8477 21.257 18.6919 21.989 17.3453C22.1215 17.105 22.3179 16.9052 22.5569 16.7675C22.7959 16.6298 23.0684 16.5594 23.3449 16.564H23.3801C23.6458 16.5665 23.9061 16.6372 24.136 16.769C24.3659 16.9008 24.5573 17.0894 24.6917 17.3162C24.826 17.5432 24.8987 17.8006 24.9027 18.0636C24.9067 18.3266 24.8418 18.5861 24.7144 18.8168Z" fill="#00C6E5"/>
<path d="M22.2435 12.2946C22.1477 11.9963 21.9575 11.7364 21.7012 11.5531C21.4449 11.3699 21.1359 11.2731 20.8198 11.2769C18.9947 11.2769 15.2524 11.2769 13.4301 11.2769H13.3189C13.1047 11.2911 12.8961 11.3504 12.707 11.4509C12.5178 11.5513 12.3525 11.6906 12.2221 11.8594C12.0917 12.0281 11.9992 12.2225 11.9508 12.4296C11.9023 12.6366 11.8991 12.8514 11.9413 13.0599C12.0189 13.3978 12.2094 13.7 12.4821 13.9174C12.7548 14.1347 13.0935 14.2546 13.4437 14.2574C14.3548 14.2574 15.1277 14.2574 16.0389 14.2574C16.95 14.2574 19.933 14.2574 20.8496 14.2574C21.0858 14.2534 21.3177 14.1942 21.5263 14.0846C21.735 13.975 21.9146 13.8182 22.0505 13.6269C22.1863 13.4355 22.2746 13.2152 22.3082 12.9836C22.3417 12.7521 22.3196 12.516 22.2435 12.2946Z" fill="white"/>
<path d="M19.2745 17.0152C19.2748 16.6628 19.1562 16.3203 18.9375 16.0421C18.7187 15.764 18.4125 15.5663 18.0672 15.4802C17.7221 15.3941 17.3577 15.4247 17.032 15.5671C16.7064 15.7095 16.4381 15.9555 16.2698 16.2661V16.2795C15.5992 16.8157 14.7891 17.153 13.933 17.2525C13.0768 17.352 12.2099 17.2096 11.432 16.8416C10.6543 16.4737 9.99756 15.8954 9.53785 15.1734C9.07807 14.4515 8.83407 13.6154 8.834 12.7619C8.8372 12.2464 8.92891 11.7352 9.1052 11.2501C9.1916 10.9942 9.30047 10.7462 9.43058 10.509C9.74098 9.97276 10.1592 9.50519 10.6595 9.1353C11.1597 8.76541 11.7312 8.50105 12.3387 8.35858C12.9461 8.21618 13.5767 8.19858 14.1913 8.30709C14.8059 8.41552 15.3915 8.64774 15.9118 8.98927C15.967 9.03683 16.0259 9.07996 16.0881 9.11814L16.1424 9.15036C16.436 9.32039 16.7787 9.38847 17.1159 9.34367L17.2244 9.3249C17.2787 9.3156 17.3322 9.30214 17.3844 9.28461C17.6999 9.1857 17.9752 8.98963 18.1703 8.7249C18.3654 8.46025 18.4701 8.14083 18.4691 7.81312C18.4692 7.74032 18.4637 7.66759 18.4528 7.59559C18.4419 7.50418 18.421 7.41414 18.3904 7.32709C18.3074 7.07773 18.1619 6.85325 17.9674 6.67461C17.9158 6.62176 17.8615 6.57157 17.8047 6.52424L17.604 6.3873C16.2662 5.51861 14.6882 5.08449 13.0896 5.14533C11.4909 5.20618 9.95123 5.75897 8.68476 6.72677C7.41822 7.69458 6.48793 9.02927 6.02329 10.545C5.55864 12.0608 5.58278 13.6824 6.09233 15.184C6.4244 16.1599 6.95232 17.0593 7.6444 17.828C8.3364 18.5968 9.17829 19.2191 10.1194 19.6575C11.5061 20.2992 13.0546 20.517 14.567 20.2832C16.0794 20.0493 17.487 19.3743 18.6101 18.3444L18.5857 18.3203C18.7988 18.1744 18.9728 17.9793 19.0928 17.752C19.2128 17.5246 19.2752 17.2718 19.2745 17.0152Z" fill="white"/>
<path d="M23.6964 9.34634C24.5486 9.34634 25.2394 8.66234 25.2394 7.81849C25.2394 6.97467 24.5486 6.29062 23.6964 6.29062C22.8442 6.29062 22.1533 6.97467 22.1533 7.81849C22.1533 8.66234 22.8442 9.34634 23.6964 9.34634Z" fill="#00C6E5"/>
<path d="M16.7526 3.66466C16.6588 3.64297 16.5678 3.61052 16.4814 3.56799L16.7526 3.66466Z" fill="#005BC6"/>
<path d="M12.4136 0.0339743C12.0854 0.0554557 11.7546 0.0930481 11.4319 0.141382C11.7386 0.000819336 12.0832 -0.0368886 12.4136 0.0339743Z" fill="#595959"/>
<path opacity="0.96" d="M40.2097 11.977H44.6191C44.6191 12.4304 44.6002 12.8423 44.5624 13.2126C44.5246 13.5828 44.449 13.9267 44.3357 14.244C44.177 14.6899 43.9616 15.0867 43.6896 15.4342C43.4175 15.7743 43.0964 16.0614 42.7261 16.2957C42.3634 16.5224 41.9629 16.6963 41.5246 16.8171C41.0863 16.9381 40.6253 16.9985 40.1417 16.9985C39.4767 16.9985 38.8684 16.8889 38.3167 16.6698C37.7727 16.4507 37.3041 16.1446 36.9111 15.7516C36.5182 15.3511 36.2122 14.875 35.993 14.3234C35.7738 13.7642 35.6643 13.1483 35.6643 12.4757C35.6643 11.8107 35.7701 11.2024 35.9817 10.6508C36.2008 10.0916 36.5069 9.61553 36.8998 9.22259C37.3003 8.82964 37.7802 8.52353 38.3394 8.3044C38.8986 8.08528 39.5221 7.97568 40.2097 7.97568C41.1014 7.97568 41.8835 8.1684 42.5561 8.55379C43.2287 8.93917 43.7614 9.53619 44.1543 10.3448L42.046 11.2176C41.8495 10.7491 41.5926 10.4128 41.2752 10.2087C40.9654 10.0047 40.6102 9.90266 40.2097 9.90266C39.8772 9.90266 39.5749 9.96688 39.3029 10.0954C39.0309 10.2163 38.7966 10.3939 38.6001 10.6281C38.4112 10.8548 38.26 11.1307 38.1467 11.4556C38.0409 11.7805 37.988 12.1432 37.988 12.5437C37.988 12.9065 38.0333 13.2428 38.124 13.5526C38.2223 13.8624 38.3658 14.1307 38.5548 14.3574C38.7437 14.5841 38.9779 14.7617 39.2575 14.8902C39.5372 15.0111 39.8621 15.0715 40.2324 15.0715C40.4515 15.0715 40.6631 15.0488 40.8671 15.0035C41.0711 14.9506 41.2525 14.8712 41.4112 14.7655C41.5775 14.6521 41.7135 14.5085 41.8193 14.3347C41.9251 14.1609 41.9969 13.9493 42.0346 13.7H40.2097V11.977ZM49.3786 12.0337H49.7979C50.2362 12.0337 50.5725 11.943 50.8068 11.7616C51.041 11.5803 51.1581 11.3196 51.1581 10.9795C51.1581 10.6395 51.041 10.3787 50.8068 10.1974C50.5725 10.016 50.2362 9.92535 49.7979 9.92535H49.3786V12.0337ZM54.264 16.7605H51.4982L49.3786 13.4733V16.7605H47.1568V8.21371H50.6141C51.0901 8.21371 51.5058 8.2855 51.861 8.42913C52.2161 8.56513 52.5071 8.75408 52.7338 8.9959C52.968 9.23764 53.1418 9.51728 53.2551 9.83466C53.3761 10.152 53.4365 10.4921 53.4365 10.8548C53.4365 11.5047 53.2778 12.0337 52.9605 12.4418C52.6506 12.8423 52.1897 13.1143 51.5775 13.2579L54.264 16.7605ZM60.9743 13.5866L59.9767 10.7415L58.9792 13.5866H60.9743ZM61.5637 15.2755H58.3898L57.8797 16.7605H55.5107L58.7639 8.21371H61.1896L64.4428 16.7605H62.0738L61.5637 15.2755ZM66.5484 16.7605V8.21371H68.7701L72.8735 13.4392V8.21371H75.0837V16.7605H72.8735L68.7701 11.535V16.7605H66.5484ZM81.2517 10.0954V16.7605H79.0299V10.0954H77.2052V8.21371H83.0765V10.0954H81.2517ZM96.339 11.0702C95.8248 10.443 95.1906 10.1293 94.435 10.1293C94.1019 10.1293 93.7921 10.1899 93.5056 10.3107C93.2256 10.4317 92.9841 10.5979 92.7797 10.8095C92.5761 11.0135 92.4132 11.2591 92.2925 11.5463C92.179 11.8334 92.1223 12.1432 92.1223 12.4757C92.1223 12.8158 92.179 13.1294 92.2925 13.4165C92.4132 13.7037 92.5761 13.9531 92.7797 14.1647C92.9914 14.3763 93.2372 14.5425 93.5165 14.6635C93.7965 14.7843 94.0983 14.8448 94.4234 14.8448C95.1339 14.8448 95.7725 14.5425 96.339 13.938V16.5677L96.1121 16.6471C95.7725 16.768 95.4546 16.8549 95.1601 16.9078C94.8655 16.9683 94.5746 16.9985 94.2874 16.9985C93.6983 16.9985 93.131 16.8889 92.587 16.6698C92.0503 16.4431 91.5746 16.1295 91.1586 15.729C90.7506 15.3209 90.4219 14.8411 90.1725 14.2894C89.923 13.7302 89.7986 13.1219 89.7986 12.4644C89.7986 11.8069 89.9194 11.2062 90.1615 10.6622C90.411 10.1105 90.7397 9.63822 91.1477 9.2452C91.563 8.8447 92.043 8.53488 92.587 8.31575C93.131 8.08906 93.7019 7.97568 94.299 7.97568C94.6386 7.97568 94.971 8.0135 95.2961 8.08906C95.6285 8.15706 95.9761 8.26666 96.339 8.41779V11.0702ZM101.1 12.0337H101.519C101.957 12.0337 102.294 11.943 102.528 11.7616C102.762 11.5803 102.879 11.3196 102.879 10.9795C102.879 10.6395 102.762 10.3787 102.528 10.1974C102.294 10.016 101.957 9.92535 101.519 9.92535H101.1V12.0337ZM105.986 16.7605H103.22L101.1 13.4733V16.7605H98.8779V8.21371H102.335C102.811 8.21371 103.227 8.2855 103.582 8.42913C103.938 8.56513 104.228 8.75408 104.455 8.9959C104.69 9.23764 104.863 9.51728 104.976 9.83466C105.098 10.152 105.158 10.4921 105.158 10.8548C105.158 11.5047 104.999 12.0337 104.682 12.4418C104.372 12.8423 103.911 13.1143 103.299 13.2579L105.986 16.7605ZM109.831 12.4871C109.831 12.8272 109.895 13.1408 110.024 13.4279C110.153 13.7151 110.327 13.9645 110.546 14.176C110.764 14.3876 111.018 14.5539 111.305 14.6748C111.599 14.7881 111.909 14.8448 112.234 14.8448C112.559 14.8448 112.866 14.7881 113.153 14.6748C113.447 14.5539 113.704 14.3876 113.923 14.176C114.15 13.9645 114.327 13.7151 114.456 13.4279C114.585 13.1408 114.649 12.8272 114.649 12.4871C114.649 12.147 114.585 11.8334 114.456 11.5463C114.327 11.2591 114.15 11.0097 113.923 10.7981C113.704 10.5866 113.447 10.4241 113.153 10.3107C112.866 10.1899 112.559 10.1293 112.234 10.1293C111.909 10.1293 111.599 10.1899 111.305 10.3107C111.018 10.4241 110.764 10.5866 110.546 10.7981C110.327 11.0097 110.153 11.2591 110.024 11.5463C109.895 11.8334 109.831 12.147 109.831 12.4871ZM107.508 12.4871C107.508 11.8523 107.625 11.2629 107.859 10.7188C108.093 10.1672 108.418 9.68731 108.834 9.27924C109.25 8.87117 109.744 8.55379 110.319 8.3271C110.9 8.09284 111.539 7.97568 112.234 7.97568C112.922 7.97568 113.557 8.09284 114.139 8.3271C114.721 8.55379 115.219 8.87117 115.635 9.27924C116.058 9.68731 116.387 10.1672 116.621 10.7188C116.855 11.2629 116.972 11.8523 116.972 12.4871C116.972 13.1219 116.855 13.7151 116.621 14.2667C116.387 14.8108 116.058 15.2869 115.635 15.695C115.219 16.103 114.721 16.4242 114.139 16.6584C113.557 16.8851 112.922 16.9985 112.234 16.9985C111.539 16.9985 110.9 16.8851 110.319 16.6584C109.744 16.4242 109.25 16.103 108.834 15.695C108.418 15.2869 108.093 14.8108 107.859 14.2667C107.625 13.7151 107.508 13.1219 107.508 12.4871ZM120.804 8.21371L122.279 13.7339L124.092 8.21371H125.86L127.674 13.7339L129.148 8.21371H131.471L128.921 16.7605H126.654L124.976 11.8069L123.298 16.7605H121.031L118.481 8.21371H120.804ZM135.727 14.8788H136.237C136.623 14.8788 136.967 14.8184 137.269 14.6974C137.571 14.5765 137.824 14.4103 138.028 14.1987C138.24 13.9871 138.399 13.7377 138.505 13.4506C138.618 13.1559 138.674 12.8347 138.674 12.4871C138.674 12.147 138.618 11.8296 138.505 11.535C138.391 11.2403 138.228 10.9871 138.017 10.7755C137.813 10.5639 137.56 10.3976 137.258 10.2768C136.955 10.1558 136.615 10.0954 136.237 10.0954H135.727V14.8788ZM133.506 8.21371H136.793C137.375 8.21371 137.919 8.33088 138.425 8.56513C138.939 8.79939 139.385 9.11299 139.763 9.50593C140.148 9.89131 140.45 10.3448 140.669 10.8661C140.889 11.38 140.998 11.9203 140.998 12.4871C140.998 13.0463 140.889 13.5866 140.669 14.108C140.458 14.6219 140.159 15.0753 139.774 15.4683C139.396 15.8612 138.951 16.1748 138.436 16.4091C137.93 16.6433 137.383 16.7605 136.793 16.7605H133.506V8.21371ZM148.413 10.0954H145.772V11.5236H148.266V13.4053H145.772V14.8788H148.413V16.7605H143.55V8.21371H148.413V10.0954ZM153.37 12.0337H153.789C154.228 12.0337 154.564 11.943 154.798 11.7616C155.032 11.5803 155.15 11.3196 155.15 10.9795C155.15 10.6395 155.032 10.3787 154.798 10.1974C154.564 10.016 154.228 9.92535 153.789 9.92535H153.37V12.0337ZM158.255 16.7605H155.49L153.37 13.4733V16.7605H151.148V8.21371H154.605C155.082 8.21371 155.498 8.2855 155.852 8.42913C156.207 8.56513 156.498 8.75408 156.725 8.9959C156.959 9.23764 157.133 9.51728 157.247 9.83466C157.367 10.152 157.428 10.4921 157.428 10.8548C157.428 11.5047 157.269 12.0337 156.952 12.4418C156.642 12.8423 156.181 13.1143 155.569 13.2579L158.255 16.7605Z" fill="white"/>
</g>
</g>
<defs>
<clipPath id="clip0_38_126">
<rect width="160" height="26.18" fill="white"/>
</clipPath>
<clipPath id="clip1_38_126">
<rect width="160" height="26.1818" fill="white" transform="translate(0 -0.000915527)"/>
</clipPath>
</defs>
</svg>
