<svg width="162" height="64" viewBox="0 0 162 64" fill="none" xmlns="http://www.w3.org/2000/svg">
<g clip-path="url(#clip0_31_1225)">
<g clip-path="url(#clip1_31_1225)">
<g clip-path="url(#clip2_31_1225)">
<mask id="mask0_31_1225" style="mask-type:luminance" maskUnits="userSpaceOnUse" x="0" y="16" width="162" height="32">
<path d="M161.266 16.4849H0.253418V47.5152H161.266V16.4849Z" fill="white"/>
</mask>
<g mask="url(#mask0_31_1225)">
<path d="M47.3958 27.5165C49.0256 27.5165 50.5813 28.2463 51.2728 29.3998L51.3716 27.799H54.2608V39.4044H51.421L51.2728 37.7096C50.5813 39.0749 48.6799 39.734 47.3217 39.7576C43.7163 39.7812 41.0493 37.6625 41.0493 33.5899C41.0493 29.5881 43.8398 27.493 47.3958 27.5165ZM47.6674 30.0825C45.6672 30.0825 44.062 31.3772 44.062 33.5899C44.062 35.8028 45.6672 37.1211 47.6674 37.1211C52.4087 37.1211 52.4087 30.0825 47.6674 30.0825ZM56.6294 22.9497H59.6174V39.4044H56.6294V22.9497ZM62.0847 22.9497H65.0727V39.4044H62.0847V22.9497ZM75.9608 36.0382L77.9858 37.9214C76.5782 39.2397 75.0966 39.7576 73.2938 39.7576C69.7626 39.7576 66.824 37.7331 66.824 33.6135C66.824 29.4939 69.7626 27.4695 73.2938 27.4695C75.0225 27.4695 76.3559 27.9403 77.6895 29.1879L75.7879 31.0947C75.0719 30.4827 74.1829 30.1766 73.3432 30.1766C71.3183 30.1766 69.8366 31.5891 69.8366 33.6135C69.8366 35.8264 71.4171 37.0034 73.2938 37.0034C74.2569 37.0034 75.2201 36.7444 75.9608 36.0382ZM85.1203 27.5637C88.9974 27.5637 91.4915 30.2943 91.4915 33.6135C91.4915 36.9563 89.0961 39.6635 85.145 39.6635C81.1939 39.6635 78.8233 36.9563 78.8233 33.6135C78.8233 30.2943 81.2434 27.5637 85.1203 27.5637ZM85.145 30.1766C82.9719 30.1766 81.836 31.8715 81.836 33.6135C81.836 35.379 82.9473 37.0269 85.145 37.0269C87.3428 37.0269 88.4541 35.379 88.4541 33.6135C88.4541 31.8715 87.1699 30.1766 85.145 30.1766ZM105.368 39.4044H102.355V33.331C102.355 31.5655 101.343 30.2237 99.4164 30.2237C97.5642 30.2237 96.3047 31.7068 96.3047 33.4723V39.4044H93.3167V27.7755H96.0084L96.206 29.3527C97.4407 28.1992 98.6754 27.6107 100.207 27.6107C103.071 27.6107 105.368 29.6587 105.368 33.3075V39.4044ZM119.762 39.4044H116.749V33.331C116.749 31.5655 115.737 30.2237 113.811 30.2237C111.959 30.2237 110.699 31.7068 110.699 33.4723V39.4044H107.711V27.7755H110.403L110.6 29.3527C111.835 28.1992 113.07 27.6107 114.601 27.6107C117.466 27.6107 119.762 29.6587 119.762 33.3075V39.4044ZM128.107 27.4459C132.181 27.4459 134.725 29.847 134.255 34.6258H124.749C124.946 36.0617 126.255 37.0975 128.379 37.0975C129.49 37.0975 130.946 36.6973 131.638 36.0147L133.564 37.8272C132.28 39.0985 130.182 39.7105 128.329 39.7105C124.131 39.7105 121.637 37.2387 121.637 33.5194C121.637 29.9883 124.156 27.4459 128.107 27.4459ZM128.206 29.9883C126.576 29.9883 125.243 30.7416 124.798 32.2482H131.366C131.168 30.7416 129.935 29.9883 128.206 29.9883ZM144.823 36.0382L146.848 37.9214C145.44 39.2397 143.959 39.7576 142.156 39.7576C138.624 39.7576 135.686 37.7331 135.686 33.6135C135.686 29.4939 138.624 27.4695 142.156 27.4695C143.884 27.4695 145.218 27.9403 146.552 29.1879L144.65 31.0947C143.934 30.4827 143.045 30.1766 142.205 30.1766C140.18 30.1766 138.698 31.5891 138.698 33.6135C138.698 35.8264 140.279 37.0034 142.156 37.0034C143.119 37.0034 144.082 36.7444 144.823 36.0382ZM152.254 24.5269V27.8226H155.612V30.2943H152.229V35.3084C152.229 36.4149 152.871 36.9563 153.809 36.9563C154.278 36.9563 154.821 36.8151 155.266 36.6032L156.106 39.0514C155.241 39.381 154.525 39.5222 153.612 39.5457C150.97 39.6399 149.241 38.204 149.241 35.3084V30.2943H146.969V27.8226H149.241V24.8329L152.254 24.5269ZM159.063 23.9339C159.652 23.9339 160.154 24.1385 160.57 24.5476C160.986 24.9567 161.195 25.45 161.195 26.0277C161.195 26.6224 160.981 27.1233 160.556 27.5305C160.141 27.9245 159.644 28.1214 159.063 28.1214C158.464 28.1214 157.959 27.9197 157.549 27.5163C157.138 27.1129 156.932 26.6167 156.932 26.0277C156.932 25.4159 157.154 24.9074 157.597 24.5021C158.014 24.1233 158.503 23.9339 159.063 23.9339ZM159.063 24.2919C158.574 24.2919 158.156 24.4661 157.812 24.8146C157.472 25.1555 157.303 25.5599 157.303 26.0277C157.303 26.5125 157.475 26.9244 157.82 27.2635C158.163 27.6025 158.578 27.772 159.063 27.772C159.547 27.772 159.961 27.6015 160.304 27.2606C160.647 26.9179 160.818 26.5068 160.818 26.0277C160.818 25.5618 160.648 25.1574 160.307 24.8146C159.962 24.4661 159.547 24.2919 159.063 24.2919ZM158.3 24.8716C158.333 24.8716 158.368 24.8717 158.404 24.8718L158.647 24.8724L158.787 24.8728C159.08 24.8738 159.242 24.8752 159.274 24.8771C159.461 24.8904 159.617 24.9301 159.74 24.9964C159.95 25.1101 160.055 25.2947 160.055 25.5504C160.055 25.7455 159.999 25.8866 159.889 25.9737C159.778 26.0608 159.642 26.1129 159.48 26.13C159.628 26.1602 159.74 26.2047 159.816 26.2635C159.954 26.3733 160.023 26.5467 160.023 26.7834V26.9908L160.024 27.0248L160.028 27.0589C160.031 27.0816 160.036 27.1044 160.044 27.1271L160.064 27.1925H159.474L159.461 27.1308C159.449 27.063 159.44 26.9765 159.436 26.8714C159.431 26.7313 159.418 26.6365 159.399 26.5874C159.368 26.5059 159.31 26.4491 159.225 26.4169C159.18 26.3979 159.109 26.3856 159.015 26.38L158.878 26.3714H158.748V27.1925H158.13V24.8714L158.3 24.8716ZM158.899 25.2805H158.748V25.9538H158.988C159.133 25.9538 159.246 25.9254 159.327 25.8685C159.408 25.8117 159.448 25.7199 159.448 25.593C159.448 25.4661 159.384 25.3781 159.258 25.3288C159.173 25.2966 159.053 25.2805 158.899 25.2805Z" fill="#9F9FA9"/>
<path d="M26.4758 42.9766C28.1152 45.733 32.0196 47.5152 31.8308 47.5152V31.6295C31.8308 23.2659 24.7626 16.4849 16.0421 16.4849C7.3228 16.4849 0.253418 23.2659 0.253418 31.6295C0.253418 39.9944 7.3228 46.7741 16.0421 46.7741C20.0472 46.7741 23.6917 45.3341 26.4758 42.9766ZM11.37 25.2902C11.8844 25.7837 11.8844 26.5813 11.37 27.0747C8.79377 29.5459 8.79377 33.5693 11.37 36.0404C13.9462 38.5103 18.138 38.5128 20.7155 36.0404C23.2917 33.5693 23.2917 29.5459 20.7155 27.0747C20.2011 26.5813 20.2011 25.7837 20.7155 25.2902C21.2287 24.7967 22.0615 24.7967 22.5759 25.2902C26.1771 28.7457 26.1771 34.3682 22.5759 37.825C20.7748 39.5527 18.4091 40.4159 16.0421 40.4159C13.6764 40.4159 11.3107 39.5527 9.50952 37.825C5.90708 34.3682 5.90708 28.7457 9.50952 25.2902C10.024 24.7967 10.8555 24.7967 11.37 25.2902ZM16.0421 22.3875C16.7697 22.3875 17.3578 22.9516 17.3578 23.6495V30.5619C17.3578 31.2585 16.7697 31.8238 16.0421 31.8238C15.3158 31.8238 14.7264 31.2585 14.7264 30.5619V23.6495C14.7264 22.9516 15.3158 22.3875 16.0421 22.3875Z" fill="#9F9FA9"/>
</g>
</g>
</g>
</g>
<defs>
<clipPath id="clip0_31_1225">
<rect width="161.81" height="64" fill="white"/>
</clipPath>
<clipPath id="clip1_31_1225">
<rect width="161.81" height="64" fill="white"/>
</clipPath>
<clipPath id="clip2_31_1225">
<rect width="162" height="32" fill="white" transform="translate(-0.0949707 16)"/>
</clipPath>
</defs>
</svg>
