<svg width="92" height="64" viewBox="0 0 92 64" fill="none" xmlns="http://www.w3.org/2000/svg">
<g clip-path="url(#clip0_31_1203)">
<g clip-path="url(#clip1_31_1203)">
<mask id="mask0_31_1203" style="mask-type:luminance" maskUnits="userSpaceOnUse" x="-42" y="1" width="177" height="62">
<path d="M134.803 1.28003H-41.8369V62.72H134.803V1.28003Z" fill="white"/>
</mask>
<g mask="url(#mask0_31_1203)">
<path fill-rule="evenodd" clip-rule="evenodd" d="M75.1158 16.3441C71.5065 16.3383 68.0071 17.582 65.2149 19.8629C62.4038 17.5818 58.8892 16.3388 55.2651 16.3441C51.6547 16.3299 48.153 17.5746 45.3655 19.8629C42.6456 17.6694 39.2083 16.3441 35.4633 16.3441C31.8544 16.3386 28.3555 17.5823 25.5637 19.8629C22.845 17.6694 19.4078 16.3441 15.6614 16.3441C6.94278 16.3441 -0.0849609 23.3302 -0.0849609 32C-0.0849609 40.6684 6.94278 47.6558 15.6627 47.6558C19.4078 47.6558 22.8952 46.3292 25.5637 44.1371C28.2823 46.3292 31.7195 47.6545 35.4633 47.6545C39.2083 47.6545 42.6958 46.3292 45.3642 44.1371C48.1757 46.418 51.6909 47.6604 55.3153 47.6545C59.1119 47.6545 62.5478 46.3292 65.2664 44.1371C67.9851 46.3292 71.4223 47.6545 75.1674 47.6545C83.8873 47.6545 90.915 40.6697 90.915 32C90.8635 23.3816 83.8358 16.3441 75.1158 16.3441ZM65.2149 39.0375C63.7407 36.9859 62.9514 34.5238 62.9586 32C62.9586 29.3994 63.779 26.9517 65.2149 24.9625C66.6896 27.0138 67.4794 29.476 67.4725 32C67.4725 34.6519 66.6007 37.0482 65.2149 39.0375ZM45.3642 39.0375C43.8896 36.9862 43.0997 34.524 43.1066 32C43.1066 29.3994 43.9269 26.9517 45.3642 24.9625C46.8383 27.014 47.6277 29.4761 47.6205 32C47.6205 34.6519 46.7486 37.0482 45.3642 39.0375ZM25.5122 39.0375C24.0375 36.9862 23.2477 34.524 23.2546 32C23.2546 29.3994 24.0762 26.9517 25.5122 24.9625C26.9863 27.014 27.7757 29.4761 27.7684 32C27.7684 34.6519 26.8966 37.0482 25.5122 39.0375ZM3.35229 32C3.35229 25.3195 8.78954 19.8629 15.561 19.8629C18.2487 19.8547 20.8635 20.7334 22.9983 22.3619C20.8952 25.0138 19.6641 28.3284 19.6641 32C19.6641 35.6202 20.8952 38.9861 22.9983 41.638C20.9468 43.2189 18.3814 44.1371 15.561 44.1371C8.84106 44.1371 3.35229 38.7318 3.35229 32ZM27.9732 41.638C30.0762 38.9861 31.3074 35.6715 31.3074 32C31.3074 28.3785 30.0762 25.0138 27.9732 22.3619C30.0247 20.7811 32.5901 19.8629 35.4104 19.8629C38.2321 19.8629 40.7975 20.7811 42.8477 22.3619C40.746 25.0138 39.5148 28.3284 39.5148 32C39.5148 35.6202 40.746 38.9861 42.849 41.638C40.7975 43.2189 38.2321 44.1371 35.4118 44.1371C32.5901 44.1371 30.0247 43.2189 27.9732 41.638ZM47.8252 41.638C49.9283 38.9861 51.1594 35.6715 51.1594 32C51.1594 28.3785 49.9283 25.0138 47.8252 22.3619C49.8767 20.7811 52.4408 19.8629 55.2625 19.8629C57.9502 19.8547 60.565 20.7334 62.6997 22.3619C60.598 25.0138 59.3668 28.3284 59.3668 32C59.3668 35.6202 60.598 38.9861 62.7011 41.638C60.6482 43.2189 58.0841 44.1371 55.2638 44.1371C52.5757 44.1455 49.9602 43.2668 47.8252 41.638ZM75.1145 44.1371C72.4268 44.1452 69.8119 43.2665 67.6773 41.638C69.779 38.9861 71.0102 35.6715 71.0102 32C71.0102 28.3785 69.779 25.0138 67.6759 22.3619C69.7288 20.7811 72.2929 19.8629 75.1132 19.8629C81.8345 19.8629 87.3232 25.2681 87.3232 32C87.3232 38.7318 81.8345 44.1371 75.1145 44.1371Z" fill="#9F9FA9"/>
</g>
</g>
</g>
<defs>
<clipPath id="clip0_31_1203">
<rect width="91.16" height="64" fill="white"/>
</clipPath>
<clipPath id="clip1_31_1203">
<rect width="91.16" height="64" fill="white"/>
</clipPath>
</defs>
</svg>
