<svg width="146" height="64" viewBox="0 0 146 64" fill="none" xmlns="http://www.w3.org/2000/svg">
<g clip-path="url(#clip0_31_1211)">
<g clip-path="url(#clip1_31_1211)">
<path d="M29.4583 25.7527C32.2253 25.7528 34.5538 26.7412 36.0212 28.8146H36.0882V26.2377H39.6441V44.528L36.0882 44.5363V41.6974H36.0212C34.6896 43.8845 32.2975 45 29.5935 45C24.059 44.9999 19.5433 40.9711 19.5431 35.6911C19.5434 29.8471 23.8875 25.7528 29.4583 25.7527ZM101.197 25.7527C103.964 25.7528 106.288 26.7412 107.76 28.8146H107.827V26.2377H111.383V44.528L107.827 44.5363V41.6974H107.76C106.428 43.8845 104.032 45 101.332 45C95.7931 44.9999 91.2818 40.9711 91.2818 35.6911C91.2821 29.8471 95.6262 25.7528 101.197 25.7527ZM133.608 25.7527C136.211 25.7102 138.722 26.6858 140.569 28.4576C142.417 30.2296 143.444 32.6476 143.417 35.1623C143.433 35.7357 143.398 36.3093 143.313 36.877H127.633C128.453 39.9172 130.949 41.8634 133.852 41.8634C136.1 41.881 138.176 40.705 139.256 38.8016H142.81C141.427 42.5105 137.79 44.987 133.707 45C128.376 44.9999 124.069 40.4423 124.069 35.556C124.069 29.7816 128.599 25.7527 133.608 25.7527ZM7.15618 17.0036C9.2909 16.94 11.3612 17.7148 12.894 19.1512C14.2107 20.4435 14.9983 22.1534 15.1096 23.9633C15.2439 25.6945 14.7325 27.4151 13.6688 28.8146C13.4791 29.0588 13.2719 29.29 13.0484 29.5059C13.6936 29.8615 14.2831 30.3038 14.8005 30.8185C16.2914 32.3188 17.1112 34.3247 17.0833 36.4039C17.1184 38.6023 16.217 40.7183 14.5898 42.2559C12.9626 43.7936 10.7532 44.6181 8.47834 44.5363H-0.245117V17.0036H7.15618ZM51.6836 25.7527C56.2128 25.7528 59.5784 28.5268 59.5784 33.5792V44.5363H56.0131V34.567C56.013 30.7045 54.4412 28.8809 51.2981 28.8809C48.1552 28.8811 46.3161 31.0939 46.316 34.5231V44.528H42.7603V26.2472H46.0765V28.1931H46.1447C47.5487 26.4437 49.4963 25.7527 51.6836 25.7527ZM66.2851 44.5363H62.7294V20.1058H66.2851V44.5363ZM70.5606 35.3805L78.4636 44.5363H74.2696L66.4299 35.3805L73.4636 26.2472H77.4852L70.5606 35.3805ZM84.035 27.6334C84.052 27.6123 85.3435 26.0213 88.6818 26.2602C89.687 26.3293 90.6711 26.5751 91.5848 26.986L90.1225 30.0135C87.6676 29.1166 85.1441 29.8386 84.3787 32.0827C84.1441 32.7892 84.0284 33.5275 84.035 34.2693V44.5363H80.4793V26.2472H84.035V27.6334ZM120.098 26.2472H123.209V29.3837H120.098V44.5363H116.542V29.3837H113.979V26.2472H116.542V20.1224H120.098V26.2472ZM29.5613 28.8893C26.0062 28.8895 23.0991 31.8288 23.0988 35.4243C23.099 38.8581 26.0061 41.8631 29.5613 41.8634C33.2118 41.8227 36.1473 38.9504 36.1422 35.4243H36.1565C36.1563 31.8593 33.4925 28.8893 29.5613 28.8893ZM101.295 28.8893C97.7401 28.8895 94.8365 31.8289 94.8363 35.4243C94.8364 38.8581 97.74 41.8631 101.295 41.8634C104.953 41.8322 107.899 38.9571 107.894 35.4243C107.894 31.8593 105.226 28.8893 101.295 28.8893ZM3.07948 41.3263H8.47834C12.1376 41.3262 13.7728 38.7758 13.773 36.405C13.773 34.1391 12.2645 31.5135 7.9981 31.5135H3.07948V41.3263ZM133.749 28.9557C130.609 28.9559 127.975 31.2392 127.634 34.2528H139.863C139.523 31.2389 136.887 28.9557 133.749 28.9557ZM144.335 25.7053C145.12 25.7082 145.754 26.3193 145.755 27.0714C145.754 27.8235 145.12 28.4345 144.335 28.4374C143.956 28.4373 143.59 28.2911 143.322 28.0331C143.054 27.7749 142.904 27.4247 142.905 27.0607C142.911 26.3089 143.551 25.7028 144.335 25.7053ZM3.07948 28.307H8.29272C10.3764 27.9937 11.8792 26.2122 11.7753 24.1779C11.6395 22.205 10.1578 20.2149 7.15497 20.2149H3.07948V28.307ZM144.308 26.0053C143.687 26.017 143.193 26.5066 143.202 27.101C143.21 27.6961 143.719 28.1734 144.34 28.1682C144.958 28.146 145.445 27.6538 145.436 27.0607H145.457C145.442 26.4659 144.928 25.9942 144.308 26.0053ZM144.381 26.3041C144.742 26.3041 144.948 26.4525 144.948 26.7263C144.963 26.9095 144.83 27.0736 144.641 27.1069C144.842 27.1577 144.917 27.2551 144.917 27.554C144.91 27.656 144.928 27.7588 144.97 27.8529L144.726 27.8635C144.688 27.7807 144.672 27.6892 144.679 27.5991C144.678 27.3103 144.594 27.2386 144.34 27.2386H143.964V27.8635H143.682V26.3041H144.381ZM143.964 26.9895H144.373C144.595 26.9894 144.705 26.8983 144.705 26.7512C144.705 26.6044 144.62 26.5579 144.399 26.5579H143.964V26.9895Z" fill="#9F9FA9"/>
</g>
</g>
<defs>
<clipPath id="clip0_31_1211">
<rect width="145.92" height="64" fill="white"/>
</clipPath>
<clipPath id="clip1_31_1211">
<rect width="145.92" height="64" fill="white"/>
</clipPath>
</defs>
</svg>
