<svg width="151" height="64" viewBox="0 0 151 64" fill="none" xmlns="http://www.w3.org/2000/svg">
<g clip-path="url(#clip0_31_1182)">
<g clip-path="url(#clip1_31_1182)">
<mask id="mask0_31_1182" style="mask-type:luminance" maskUnits="userSpaceOnUse" x="-73" y="0" width="296" height="64">
<path d="M222.328 0.413818H-72.2375V63.5862H222.328V0.413818Z" fill="white"/>
</mask>
<g mask="url(#mask0_31_1182)">
<path d="M13.2837 17.9025L14.1541 18.142C14.5054 18.2301 14.7377 18.4204 14.853 18.6989C14.9703 19.0035 15.0283 19.3282 15.0235 19.6549V29.6637L6.26928 17.6333H-0.012207V17.8988L0.435877 18.3499C0.682049 18.5801 0.875666 18.7713 1.0158 18.9207C1.16607 19.085 1.29467 19.2681 1.39843 19.4656C1.51276 19.6784 1.66642 19.9971 1.85942 20.4216V33.1946C1.86726 33.5128 1.79427 33.8278 1.64737 34.1097C1.50065 34.3713 1.2519 34.5591 0.961409 34.6277L0.0928992 34.8978V35.1633H4.10169V34.8978L3.30694 34.6277C2.97195 34.5219 2.75221 34.3449 2.64772 34.0968C2.53468 33.8099 2.48073 33.503 2.48914 33.1946V21.3006L12.5664 35.2384H15.6615V19.628C15.6568 19.3153 15.6921 19.0034 15.7666 18.6998C15.8367 18.4343 16.0303 18.2487 16.3475 18.1429L17.0593 17.9034V17.6333H13.2884L13.2837 17.9025Z" fill="#9F9FA9"/>
<path d="M62.0727 17.6787L67.4259 33.4748C67.5296 33.7976 67.6903 34.0989 67.9004 34.364C68.0755 34.5683 68.3486 34.7395 68.7174 34.8844L69.0335 34.9908V35.2564H60.9917V34.9908L61.3893 34.8595C61.7593 34.7178 61.9839 34.5192 62.0626 34.263C62.1414 34.0069 62.1282 33.7012 62.023 33.3467L60.7836 29.5243H54.9288L53.6629 33.2667C53.54 33.6551 53.5008 33.9646 53.5449 34.1947C53.5891 34.4249 53.7958 34.6113 54.1646 34.7523L54.7448 34.9908V35.2525H48.0605C46.9351 35.2537 46.0602 34.9703 45.4364 34.4028C44.8125 33.8354 44.5006 32.9331 44.5005 31.6956V22.8897H44.4136C43.8309 22.9259 42.8225 22.9169 41.8205 23.0551C41.3459 23.1479 41.1327 23.2452 40.9087 23.3945C40.6847 23.5439 40.5492 23.6993 40.244 24.1012L37.4778 27.8584L41.0851 33.4973C41.5239 34.1861 42.1127 34.627 42.8502 34.8207L43.2712 34.9535V35.2183H36.0038V34.9535L36.4503 34.8479C36.7483 34.7761 36.9371 34.6301 37.0164 34.4106C37.0957 34.1909 37.0478 33.9391 36.872 33.6558L34.5554 30.029L32.0524 33.6829C31.8424 33.965 31.7765 34.2078 31.8552 34.4106C31.9338 34.6135 32.1143 34.7501 32.3957 34.8207L32.9222 34.9535V35.2183H28.9724V34.9535L29.6566 34.7951C30.0101 34.7279 30.3459 34.5876 30.6436 34.3842C30.9277 34.1673 31.1736 33.9032 31.369 33.603L34.2129 29.4994L30.6312 23.7805C30.4928 23.5629 30.3342 23.359 30.1575 23.1716C30.0174 23.0305 29.7976 22.9245 29.4989 22.854L29.13 22.7484V22.4843H35.8166V22.7484L35.3685 22.854C34.7539 23.0477 34.631 23.4361 34.9996 24.0189L37.1593 27.3808L39.5016 24.1323C39.6939 23.8316 39.786 23.5792 39.7781 23.3751C39.77 23.1982 39.6381 23.0638 39.382 22.9728C39.346 22.9608 39.3068 22.949 39.2663 22.9379L38.6069 22.7523V22.4867H40.8699C41.4287 22.482 42.2795 22.4291 42.6049 22.4012C43.2567 22.3511 44.3303 22.0755 44.7257 21.8444C45.1556 21.5881 45.5501 21.2761 45.8992 20.9164L48.0613 18.5027H48.3245L48.2461 22.2156H51.1972V22.7468H48.2166V32.1709C48.2166 32.7899 48.2478 33.2427 48.469 33.5991C49.2037 34.7831 50.0173 34.9486 50.5409 34.9636C50.958 34.9494 51.3704 34.8692 51.7626 34.7259C52.1139 34.5839 52.3875 34.4316 52.5811 34.2273C52.7997 33.9783 52.9614 33.684 53.0549 33.3653L58.4872 17.6787H62.0727ZM55.1113 28.9892H60.6229L57.9598 20.7277L55.1113 28.9892Z" fill="#9F9FA9"/>
<path d="M81.321 16.8908L81.2152 20.6037V33.5807C81.2025 33.8795 81.2653 34.1764 81.3989 34.4436C81.523 34.6654 81.7512 34.82 82.0836 34.9118L82.3206 34.9903V35.2535L77.8136 35.5478L77.576 34.5911C77.074 34.9233 76.5275 35.1827 75.9536 35.3615C75.3017 35.5624 74.6232 35.6614 73.9415 35.6542C72.965 35.6694 72.0012 35.427 71.1464 34.9514C70.3204 34.4824 69.6653 33.7564 69.1816 32.7739C68.698 31.7913 68.4563 30.5305 68.4563 28.9918C68.4563 27.4337 68.7288 26.1455 69.274 25.1282C69.8193 24.111 70.54 23.3499 71.4361 22.845C72.3302 22.3416 73.3388 22.081 74.3631 22.0886C74.9568 22.0865 75.5495 22.1487 76.1299 22.2742C76.6556 22.3843 77.1622 22.572 77.6334 22.831V19.3782C77.6334 19.0062 77.5777 18.7314 77.4626 18.555C77.3473 18.3787 77.1053 18.2543 76.7364 18.1838L76.2363 18.0766V17.8118L81.0299 16.6438L81.321 16.8908ZM75.4931 22.831C74.651 22.8273 73.9307 23.3181 73.3326 24.3026C72.7346 25.2872 72.4356 26.8314 72.4356 28.9351C72.435 31.0413 72.7161 32.5236 73.279 33.3819C73.842 34.2402 74.5721 34.6695 75.4683 34.6695C76.1973 34.6717 76.9083 34.4389 77.4968 34.0055L77.4975 23.4678C76.846 23.0434 76.1778 22.831 75.4931 22.831Z" fill="#9F9FA9"/>
<path d="M97.0868 20.1393C97.4995 20.5198 98.0426 20.7245 98.6025 20.7101C99.1592 20.7258 99.6991 20.5208 100.106 20.1393C100.506 19.7678 100.727 19.24 100.712 18.6922C100.712 18.0907 100.51 17.6041 100.106 17.2322C99.6951 16.8585 99.156 16.659 98.6025 16.6752C98.045 16.6604 97.5035 16.8595 97.0868 17.2322C96.6724 17.6034 96.4657 18.0901 96.4673 18.6922C96.4522 19.2428 96.6788 19.7722 97.0868 20.1393Z" fill="#9F9FA9"/>
<path d="M100.699 34.4335C100.567 34.2207 100.501 33.9372 100.501 33.5833V26.1474L100.58 22.7493L100.316 22.4839H92.2109V22.7493L92.8702 22.909C93.2217 23.0148 93.4324 23.1875 93.5032 23.413C93.5732 23.6386 93.5382 23.9356 93.3974 24.2892L90.8161 31.6434L88.0502 24.2363C87.7862 23.4938 87.9977 23.0337 88.6824 22.8561L89.1572 22.7493V22.4839H82.3213V22.7493L82.6895 22.8561C83.2716 23.0369 83.7392 23.4775 83.9555 24.0507L88.6228 35.333H90.1576L94.0304 24.1305C94.1203 23.8323 94.2777 23.5593 94.4909 23.3332C94.7135 23.1369 94.9807 23 95.2694 22.935L95.4595 22.8895L95.5605 22.8737C95.8134 22.8286 96.0734 22.8653 96.304 22.9786C96.413 23.0344 96.5076 23.1151 96.5808 23.2144C96.712 23.4 96.778 23.6785 96.7788 24.0498V33.5545C96.7923 33.8507 96.7239 34.1449 96.5808 34.4038C96.4488 34.6167 96.207 34.7761 95.8555 34.8818L95.4873 34.9877V35.2531H101.658V34.9904L101.394 34.9116C101.063 34.8032 100.831 34.6439 100.699 34.4335Z" fill="#9F9FA9"/>
<path d="M109.402 27.3162L108.215 26.9709C107.336 26.6702 106.672 26.3425 106.223 25.9879C105.782 25.6482 105.531 25.114 105.551 24.5548C105.534 23.9672 105.837 23.4171 106.342 23.1217C106.845 22.7927 107.431 22.6173 108.031 22.6167C108.681 22.6167 109.169 22.7362 109.494 22.975C109.819 23.2139 110.148 23.6254 110.482 24.2096L111.404 25.8561H111.669L111.825 22.9889C111.271 22.6911 110.682 22.4635 110.073 22.3113C109.439 22.1582 108.789 22.0825 108.136 22.0858C106.431 22.0858 105.121 22.493 104.207 23.3073C103.293 24.1217 102.836 25.1118 102.836 26.2776C102.836 27.2515 103.143 28.0745 103.758 28.7466C104.373 29.4185 105.216 29.9136 106.29 30.2317L107.396 30.577C108.398 30.8777 109.084 31.2137 109.453 31.585C109.822 31.9562 110.007 32.4343 110.006 33.0191C110.02 33.6276 109.728 34.202 109.228 34.545C108.71 34.9261 108.028 35.1164 107.185 35.1158C106.463 35.1158 105.87 34.9435 105.405 34.5988C104.94 34.2542 104.513 33.7282 104.126 33.0209L103.229 31.4281H102.965L102.939 34.584C103.546 34.8966 104.183 35.1502 104.838 35.3414C105.592 35.554 106.374 35.6565 107.158 35.6458C108.986 35.6458 110.405 35.2566 111.417 34.4782C112.428 33.6997 112.933 32.6663 112.931 31.378C112.931 30.422 112.659 29.6033 112.114 28.922C111.57 28.2407 110.665 27.7054 109.402 27.3162Z" fill="#9F9FA9"/>
<path d="M120.672 22.0859C121.921 22.086 123.039 22.3558 124.022 22.8959C125.001 23.4332 125.809 24.2397 126.352 25.2211C126.923 26.2322 127.209 27.4363 127.208 28.8323C127.207 30.2282 126.939 31.4348 126.404 32.4521C125.893 33.4449 125.104 34.2662 124.136 34.8152C123.161 35.3721 122.005 35.6508 120.668 35.6508C119.331 35.6508 118.171 35.3722 117.187 34.8152C116.211 34.2666 115.418 33.4397 114.906 32.4389C114.371 31.4117 114.103 30.2082 114.103 28.8284C114.102 27.4485 114.388 26.2536 114.96 25.2444C115.508 24.2584 116.324 23.4488 117.31 22.9091C118.301 22.3603 119.423 22.0859 120.672 22.0859ZM120.676 22.6171C120.061 22.6178 119.563 22.7943 119.186 23.1476C118.809 23.5015 118.536 24.1303 118.369 25.0332C118.202 25.9359 118.118 27.2189 118.118 28.882C118.118 30.5272 118.201 31.8018 118.369 32.7052C118.534 33.6074 118.807 34.2361 119.186 34.59C119.564 34.9439 120.061 35.1204 120.676 35.1204C121.291 35.1179 121.782 34.9413 122.151 34.59C122.519 34.2386 122.787 33.6099 122.953 32.7052C123.121 31.8018 123.204 30.5273 123.206 28.882C123.206 27.2183 123.122 25.9353 122.954 25.0332C122.787 24.131 122.519 23.5021 122.151 23.1476C121.783 22.7932 121.291 22.6166 120.676 22.6171Z" fill="#9F9FA9"/>
<path d="M138.232 22.6455C137.88 22.2743 137.37 22.0886 136.702 22.0886C136.197 22.0967 135.703 22.2337 135.265 22.4868C134.776 22.7566 134.331 23.1011 133.947 23.5078C133.56 23.9118 133.235 24.372 132.984 24.8732V24.6616L132.747 22.3782L132.484 22.1128L127.948 23.6526V23.9181L128.344 24.0239C128.695 24.0945 128.936 24.2229 129.069 24.4091C129.201 24.5953 129.267 24.8828 129.267 25.2715V33.5806C129.279 33.8684 129.21 34.1537 129.069 34.4039C128.936 34.6168 128.695 34.7762 128.344 34.8819L127.948 34.9878V35.2532H134.782V34.9906L133.938 34.752C133.323 34.5757 133.016 34.1332 133.016 33.4247V26.0149C133.111 25.7563 133.221 25.5037 133.346 25.2584C133.455 25.0433 133.602 24.8499 133.781 24.6876C133.975 24.44 134.185 24.3293 134.414 24.3553C134.642 24.3822 134.845 24.5196 135.02 24.7674L135.074 24.8203C135.636 25.5628 136.286 25.9341 137.024 25.9341C137.482 25.9412 137.923 25.7645 138.251 25.4431C138.593 25.1164 138.765 24.6523 138.765 24.0508C138.78 23.5297 138.588 23.024 138.232 22.6455Z" fill="#9F9FA9"/>
<path d="M23.7848 22.0691C24.9292 22.0691 25.9063 22.3037 26.7157 22.7727C27.5035 23.2194 28.1491 23.8822 28.5772 24.6839C29.0075 25.4889 29.2226 26.405 29.2226 27.4315C29.2226 27.6269 29.214 27.826 29.1962 28.0288C29.1831 28.2141 29.1484 28.3975 29.0929 28.5747H21.2236C21.239 30.4854 21.5772 31.8614 22.2378 32.7023C22.8986 33.5433 23.8803 33.9643 25.1827 33.9643C26.0628 33.9637 26.7757 33.8215 27.3215 33.5388C27.9057 33.2243 28.4256 32.8011 28.8529 32.2915L29.117 32.5338C28.6029 33.4744 27.8515 34.2621 26.9386 34.817C26.0326 35.3659 24.9449 35.6402 23.6769 35.6402C22.4274 35.6402 21.319 35.3671 20.3522 34.8201C19.3876 34.2851 18.5985 33.4786 18.0815 32.4996C17.5356 31.4917 17.2629 30.2876 17.2629 28.8884C17.2623 27.4374 17.5792 26.2029 18.2135 25.1856C18.8072 24.2066 19.6507 23.4052 20.6559 22.8651C21.6171 22.3427 22.6925 22.0694 23.7848 22.0691ZM23.6854 22.6213C23.2144 22.6106 22.7564 22.7763 22.3994 23.0857C22.0454 23.3926 21.7683 23.9366 21.5692 24.7181H21.5731C21.3739 25.5021 21.2655 26.6025 21.2477 28.0194H25.6867C25.8588 26.1051 25.7896 24.7269 25.4786 23.8848C25.1676 23.0426 24.5699 22.6213 23.6854 22.6213Z" fill="#9F9FA9"/>
<path d="M144.182 16.8388V19.8947C144.182 20.0029 144.096 20.0905 143.989 20.0905H142.584C142.477 20.0905 142.391 20.0029 142.391 19.8947V16.8388C142.391 16.3367 142.791 15.9297 143.286 15.9297C143.781 15.9299 144.182 16.3368 144.182 16.8388Z" fill="#9F9FA9"/>
<path fill-rule="evenodd" clip-rule="evenodd" d="M149.608 20.2417L143.801 16.0946C143.396 15.8072 142.838 15.9056 142.553 16.3149C142.438 16.4807 142.382 16.6808 142.392 16.8831L142.391 16.8804V18.0071C142.415 17.8183 142.58 17.6813 142.768 17.6941C142.88 17.6975 142.989 17.7355 143.08 17.8033L148.594 21.7404C148.801 21.8875 149.06 21.9392 149.306 21.8829C149.553 21.8266 149.764 21.6675 149.89 21.4446C150.119 21.0349 149.988 20.513 149.608 20.2417Z" fill="#9F9FA9"/>
<path fill-rule="evenodd" clip-rule="evenodd" d="M149.842 20.4768C149.782 20.3896 149.706 20.3141 149.619 20.2539H149.625L148.718 19.6057C148.783 19.6705 148.823 19.7568 148.831 19.8492C148.841 19.9976 148.751 20.14 148.594 20.2559L142.771 24.415C142.368 24.7028 142.9 24.7095 143.183 25.1203L143 25.306C143.284 25.7149 143.397 26.1911 143.801 25.9037L149.625 21.7442C150.029 21.4546 150.126 20.8878 149.842 20.4768Z" fill="#9F9FA9"/>
<path fill-rule="evenodd" clip-rule="evenodd" d="M144.743 25.2294C144.577 25.3175 144.371 25.2587 144.274 25.0951C144.212 24.9994 144.18 24.8869 144.182 24.7723V22.1019C144.182 21.9937 144.095 21.9061 143.988 21.9058H142.584C142.477 21.9061 142.391 21.9938 142.391 22.1019V25.1578C142.392 25.6592 142.792 26.0653 143.286 26.067C143.486 26.0668 143.681 25.9982 143.837 25.8721L143.836 25.8775L144.743 25.2294Z" fill="#9F9FA9"/>
<path d="M72.8365 42.3882C73.9515 42.3882 74.7244 43.1957 74.7244 44.5161C74.7243 45.8279 73.9514 46.6517 72.8365 46.6517C72.2571 46.6517 71.7564 46.383 71.4052 45.9373V48.0986H70.7474V42.4892H71.4052V43.0941C71.7125 42.6821 72.2396 42.3883 72.8365 42.3882ZM38.0517 42.3882C38.956 42.3882 39.6934 42.7749 39.6934 43.7589V46.5508H39.0349V46.0887C38.6925 46.4586 38.2012 46.6517 37.6307 46.6517C36.9197 46.6517 36.1554 46.1895 36.1552 45.3066C36.1552 44.39 36.9108 43.9694 37.6307 43.9694C38.2101 43.9694 38.6925 44.1461 39.0349 44.5161V43.7838C39.0347 43.2457 38.5783 42.9349 37.9639 42.9349C37.4548 42.935 37.0421 43.1028 36.6647 43.4979L36.3572 43.0607C36.8136 42.6066 37.3582 42.3883 38.0517 42.3882ZM44.8617 42.4892H45.7222V43.0436H44.8617V45.5668C44.8617 45.8696 45.0025 46.0887 45.2834 46.0887C45.4765 46.0887 45.6437 46.0042 45.7315 45.9117L45.9241 46.3916C45.7573 46.5428 45.5202 46.6517 45.1428 46.6517C44.5108 46.6517 44.1947 46.3073 44.1946 45.702V43.0436H43.4925V42.4892H44.1946V41.3786H44.8617V42.4892ZM53.4804 42.3882C54.7623 42.3882 55.5175 43.3471 55.5175 44.5666V44.7258H52.0935C52.1461 45.4911 52.6994 46.1307 53.6125 46.1307C54.1041 46.1306 54.5873 45.9451 54.9296 45.6088L55.2457 46.0212C54.8155 46.4248 54.2444 46.6517 53.5597 46.6517C52.2955 46.6517 51.3915 45.7859 51.3914 44.5161C51.3914 43.3387 52.2689 42.3883 53.4804 42.3882ZM60.949 42.3882C61.6777 42.3882 62.1872 42.6489 62.5209 42.9769L62.2133 43.4141C61.9588 43.1197 61.5021 42.9008 60.949 42.9008C60.3698 42.9008 60.0095 43.1784 60.0094 43.5399C60.0094 44.423 62.6349 43.843 62.635 45.4239C62.635 46.1051 62.0641 46.6517 60.9754 46.6517C60.2731 46.6517 59.6933 46.4415 59.263 46.0126L59.597 45.5583C59.8779 45.8695 60.4138 46.1392 60.9933 46.1392C61.6427 46.1391 62.0028 45.8446 62.0029 45.441C62.0029 44.457 59.3772 45.0624 59.3772 43.557C59.3772 42.9178 59.9394 42.3882 60.949 42.3882ZM87.5539 42.4892H88.4144V43.0436H87.5539V45.5668C87.5539 45.8696 87.6947 46.0887 87.9754 46.0887C88.1686 46.0887 88.3356 46.0042 88.4239 45.9117L88.6164 46.3916C88.4494 46.5428 88.2124 46.6517 87.8346 46.6517C87.2032 46.6517 86.8867 46.3073 86.8867 45.702V43.0436H86.1845V42.4892H86.8867V41.3786H87.5539V42.4892ZM22.6493 46.5508H21.9209V40.9414H22.6493V46.5508ZM26.2434 42.3882C27.1213 42.3883 27.5869 42.8169 27.587 43.6999V46.5508H26.937V43.8933C26.9369 43.1701 26.5507 42.9513 25.9801 42.9512C25.4623 42.9512 24.9791 43.2539 24.7244 43.5818V46.5508H24.0658V42.4892H24.7244V43.0778C25.0229 42.733 25.6025 42.3882 26.2434 42.3882ZM33.712 40.9414C34.8884 40.9415 35.5471 41.7154 35.5471 42.6321C35.547 43.5487 34.8795 44.3226 33.712 44.3227H32.0873V46.5508H31.3589V40.9414H33.712ZM43.1648 43.0436C43.0858 43.0353 43.0066 43.0273 42.9101 43.0273C42.4974 43.0273 41.9446 43.347 41.7514 43.675V46.5508H41.0929V42.4892H41.7514V43.1368C42.0938 42.7163 42.5854 42.3968 43.1648 42.3968V43.0436ZM48.8946 42.3882C49.7726 42.3882 50.2381 42.8169 50.2382 43.6999V46.5508H49.5881V43.8933C49.5881 43.1701 49.202 42.9512 48.6313 42.9512C48.1134 42.9512 47.6302 43.2539 47.3755 43.5818V46.5508H46.717V42.4892H47.3755V43.0778C47.6741 42.733 48.2537 42.3883 48.8946 42.3882ZM58.7248 43.0436C58.6459 43.0353 58.5667 43.0273 58.4701 43.0273C58.0575 43.0275 57.5045 43.3471 57.3114 43.675V46.5508H56.6529V42.4892H57.3114V43.1368C57.6538 42.7164 58.1454 42.3968 58.7248 42.3968V43.0436ZM64.4461 43.0778C64.7358 42.733 65.3156 42.3882 65.9566 42.3882C66.843 42.3883 67.3085 42.8 67.3087 43.6828V46.5508H66.65V43.877C66.65 43.1538 66.2726 42.9513 65.6933 42.9512C65.1842 42.9512 64.6919 43.2539 64.4461 43.5818V46.5508H63.7875V40.9414H64.4461V43.0778ZM69.3573 46.5508H68.6987V42.4892H69.3573V46.5508ZM79.3569 45.7269L80.4723 42.4892H81.0425L82.1487 45.7269L83.1849 42.4892H83.8783L82.5264 46.5508H81.8592L80.753 43.2875L79.6468 46.5508H78.988L77.6359 42.4892H78.3208L79.3569 45.7269ZM85.3654 46.5508H84.707V42.4892H85.3654V46.5508ZM90.0772 43.0778C90.3667 42.733 90.9456 42.3883 91.5866 42.3882C92.4733 42.3882 92.9385 42.8 92.9385 43.6828V46.5508H92.28V43.877C92.28 43.1537 91.9031 42.9512 91.3234 42.9512C90.8144 42.9513 90.3229 43.254 90.0772 43.5818V46.5508H89.4188V40.9414H90.0772V43.0778ZM100.741 41.5634H98.8797V46.5508H98.1513V41.5634H96.2984V40.9414H100.741V41.5634ZM102.509 46.5508H101.78V40.9414H102.509V46.5508ZM106.822 45.2639L108.641 40.9414H109.685V46.5508H108.956V41.8329L106.972 46.5508H106.673L104.68 41.8329V46.5508H103.952V40.9414H104.997L106.822 45.2639ZM114.964 40.9414V41.5634H111.856V43.3721H114.903V43.9943H111.856V45.9288H114.964V46.5508H111.128V40.9414H114.964ZM37.8761 44.4229C37.2529 44.423 36.8231 44.7937 36.8231 45.3066C36.8232 45.8279 37.253 46.1982 37.8761 46.1982C38.3325 46.1982 38.7802 46.0296 39.0349 45.6935V44.9191C38.7802 44.5914 38.3325 44.4229 37.8761 44.4229ZM72.6695 42.9512C72.1516 42.9514 71.6334 43.2458 71.4052 43.5989V45.4325C71.6334 45.7856 72.1516 46.0886 72.6695 46.0887C73.5211 46.0887 74.0308 45.4158 74.0309 44.5161C74.0309 43.6162 73.5212 42.9512 72.6695 42.9512ZM53.4719 42.9093C52.5676 42.9093 52.12 43.6412 52.0849 44.2552H54.8674C54.8587 43.658 54.4376 42.9094 53.4719 42.9093ZM32.0873 43.6999H33.6242C34.3177 43.6998 34.7914 43.2626 34.7915 42.6321C34.7915 42.0014 34.3178 41.5635 33.6242 41.5634H32.0873V43.6999ZM69.032 41.0594C69.2778 41.0594 69.4715 41.2527 69.4715 41.4881C69.4715 41.7236 69.2778 41.9083 69.032 41.9083C68.7862 41.9081 68.5846 41.7235 68.5846 41.4881C68.5846 41.2527 68.7862 41.0596 69.032 41.0594ZM85.0402 41.0594C85.2859 41.0594 85.4799 41.2527 85.4799 41.4881C85.4799 41.7236 85.2859 41.9083 85.0402 41.9083C84.7944 41.9081 84.5924 41.7235 84.5924 41.4881C84.5924 41.2527 84.7944 41.0596 85.0402 41.0594Z" fill="#9F9FA9"/>
</g>
</g>
</g>
<defs>
<clipPath id="clip0_31_1182">
<rect width="150.09" height="64" fill="white"/>
</clipPath>
<clipPath id="clip1_31_1182">
<rect width="150.09" height="64" fill="white"/>
</clipPath>
</defs>
</svg>
