<svg width="220" height="64" viewBox="0 0 220 64" fill="none" xmlns="http://www.w3.org/2000/svg">
<g clip-path="url(#clip0_31_1215)">
<g clip-path="url(#clip1_31_1215)">
<mask id="mask0_31_1215" style="mask-type:luminance" maskUnits="userSpaceOnUse" x="-105" y="0" width="430" height="64">
<path d="M324.502 0.969727H-104.104V63.0303H324.502V0.969727Z" fill="white"/>
</mask>
<g mask="url(#mask0_31_1215)">
<path d="M198.993 16.4167C207.189 16.4167 213.835 23.0613 213.835 31.2579C213.835 39.4545 207.189 46.0991 198.993 46.0991C190.797 46.0989 184.151 39.4544 184.151 31.2579C184.151 23.0614 190.796 16.4169 198.993 16.4167ZM193.852 24.7166C193.291 24.7168 192.834 25.1736 192.827 25.7347L192.819 27.177C192.819 27.4462 192.925 27.7144 193.12 27.9017C193.316 28.0967 193.575 28.2034 193.845 28.2034H199.571L192.745 35.0298C192.553 35.2223 192.446 35.483 192.446 35.7546C192.446 36.0262 192.553 36.2869 192.745 36.4793L193.763 37.4975C193.967 37.7009 194.228 37.7983 194.489 37.7983C194.75 37.7982 195.011 37.7008 195.213 37.4975L202.04 30.6711V36.3975C202.04 36.6667 202.146 36.9273 202.341 37.1223C202.537 37.3181 202.797 37.3995 203.065 37.424L204.508 37.4157C205.069 37.4156 205.525 36.9522 205.526 36.3892V25.744C205.528 25.6094 205.504 25.4753 205.454 25.3503C205.403 25.2255 205.328 25.112 205.233 25.0164C205.138 24.9208 205.025 24.8452 204.901 24.7939C204.776 24.7426 204.643 24.7164 204.508 24.7175L193.852 24.7166Z" fill="#9F9FA9"/>
<path fill-rule="evenodd" clip-rule="evenodd" d="M35.9318 44.6438V35.1078H37.6384C42.922 35.1078 45.2822 32.9491 45.2822 28.4491V22.5768C45.2822 18.1267 42.922 15.9604 37.6384 15.9604H32.1918C31.3017 15.9604 30.7715 16.4624 30.7715 17.3741V44.6438C30.7715 45.5555 31.2942 46.099 32.1918 46.099H34.5115C35.4015 46.099 35.9318 45.5631 35.9318 44.6438ZM40.122 28.4397C40.122 29.9871 39.4693 31.025 37.6393 31.025H35.9327V20.0339H37.6393C39.4693 20.0339 40.122 21.0793 40.122 22.5768V28.4397ZM62.0261 39.736V22.3234C62.0261 18.057 59.7384 15.9604 54.7504 15.9604C49.77 15.9604 47.5144 18.0485 47.5144 22.3234V39.736C47.5144 44.0024 49.77 46.099 54.7504 46.099C59.7308 46.099 62.0261 44.0109 62.0261 39.736ZM52.5418 39.736V22.3234C52.5418 20.9286 53.1305 19.9877 54.758 19.9792C56.3779 19.9792 57.0136 20.9286 57.0136 22.3234V39.736C57.0136 41.1393 56.3789 42.0802 54.758 42.0802C53.138 42.0802 52.5418 41.1308 52.5418 39.736Z" fill="#9F9FA9"/>
<path d="M69.8404 44.6438C69.8404 45.5639 69.3808 46.0989 68.6104 46.0989H66.6043C65.8273 46.0989 65.3752 45.5555 65.3752 44.6438V17.3732C65.3752 16.4624 65.8339 15.9604 66.6043 15.9604H68.6104C69.3808 15.9604 69.8395 16.4624 69.8395 17.3741L69.8404 44.6438ZM83.9321 17.3741C83.9321 16.4624 84.4388 15.9604 85.2892 15.9604H87.4969C88.3549 15.9604 88.8154 16.4624 88.8154 17.3741V44.6438C88.8154 45.5639 88.3474 46.0989 87.4969 46.0989H85.6641C84.8447 46.0989 84.5405 45.6393 84.306 45.0196L79.2427 30.1217V44.6438C79.2427 45.5639 78.7746 46.0989 77.9241 46.0989H75.6619C74.8039 46.0989 74.3047 45.5555 74.3047 44.6438V17.3732C74.3047 16.4615 74.8114 15.9595 75.6619 15.9595H77.4561C78.2755 15.9595 78.6183 16.4191 78.8142 17.0388L83.9321 32.1457V17.3741ZM100.974 20.0348V44.6428C100.974 45.563 100.426 46.0989 99.5065 46.0989H97.1101C96.1824 46.0989 95.6428 45.5545 95.6428 44.6428V20.0348H91.3998C90.4806 20.0348 89.9325 19.4913 89.9325 18.5796V17.3732C89.9325 16.4615 90.4806 15.9595 91.3998 15.9595H105.208C106.136 15.9595 106.676 16.4615 106.676 17.3732V18.5787C106.676 19.4904 106.128 20.0338 105.208 20.0338L100.974 20.0348ZM115.929 27.333L120.363 31.5241C122.863 33.8269 123.412 35.7586 123.412 39.7368C123.412 44.0109 121.152 46.0989 116.16 46.0989C111.169 46.0989 108.909 44.0024 108.909 39.7359V36.4932C108.909 35.5853 109.386 35.0569 110.254 35.0569H112.555C113.422 35.0569 113.9 35.5937 113.9 36.4932V39.7359C113.9 41.1308 114.536 42.0801 116.16 42.0801C117.785 42.0801 118.421 41.1383 118.421 39.7359C118.421 37.4331 118.103 36.3274 116.399 34.7263L111.925 30.5352C109.426 28.2324 108.916 26.3007 108.916 22.3225C108.916 18.0484 111.178 15.9604 116.168 15.9604C121.159 15.9604 123.42 18.0569 123.42 22.3234V25.5661C123.42 26.4655 122.942 26.9609 122.075 26.9609H119.774C118.906 26.9609 118.429 26.4655 118.429 25.567V22.3225C118.429 20.9276 117.792 19.9783 116.168 19.9783C114.545 19.9783 113.908 20.9201 113.908 22.3225C113.916 24.6243 114.226 25.7319 115.929 27.333ZM146.034 30.5324C146.923 30.5324 147.452 31.0221 147.452 31.9093V39.8188C147.452 44.0382 145.097 46.0989 139.986 46.0989C134.876 46.0989 132.562 44.0297 132.562 39.8188V22.6238C132.562 18.4045 134.876 16.3428 139.986 16.3428C145.097 16.3428 147.452 18.412 147.452 22.6238V25.3033C147.452 26.1915 146.923 26.7208 146.034 26.7208H143.72C142.823 26.7208 142.301 26.1915 142.301 25.3033V22.6238C142.301 21.2469 141.65 20.3098 139.986 20.3098C138.324 20.3098 137.713 21.2384 137.713 22.6238V39.8103C137.713 41.1873 138.324 42.1234 139.986 42.1234C141.65 42.1234 142.301 41.1948 142.301 39.8103V34.4993H141.331C140.435 34.4993 139.954 33.97 139.954 33.0819V31.9093C139.954 31.0136 140.443 30.5324 141.331 30.5324H146.034ZM150.232 17.9232C150.232 17.036 150.761 16.5472 151.65 16.5472H153.964C154.853 16.5472 155.382 17.036 155.382 17.9232V39.8188C155.382 41.1957 155.994 42.1319 157.656 42.1319C159.319 42.1319 159.971 41.2033 159.971 39.8188V17.9232C159.971 17.036 160.501 16.5472 161.389 16.5472H163.704C164.592 16.5472 165.122 17.036 165.122 17.9232V39.8188C165.122 44.0382 162.766 46.0989 157.656 46.0989C152.547 46.0989 150.232 44.0297 150.232 39.8188V17.9232ZM170.843 16.5472C171.414 16.5472 172.017 16.792 172.22 17.5163L173.965 24.0809L175.138 29.9626H175.465L176.597 24.0818L178.383 17.5163C178.586 16.7836 179.197 16.5462 179.76 16.5462H181.952C183.166 16.5462 183.534 17.5163 183.208 18.4939L177.853 35.3545V44.478C177.853 45.3737 177.364 45.8955 176.476 45.8955H174.12C173.223 45.8955 172.742 45.3662 172.742 44.478V35.3545L167.346 18.4939C167.062 17.5238 167.428 16.5472 168.642 16.5472H170.843ZM10.153 18.395V25.3269C10.153 25.6509 9.95143 25.8449 9.61425 25.8449H8.74589C8.40871 25.8449 8.20716 25.6584 8.20716 25.3269V18.395H6.96207C6.62395 18.395 6.42334 18.2095 6.42334 17.877V17.2272C6.42334 16.9032 6.62395 16.7092 6.96207 16.7092H11.3981C11.7362 16.7092 11.9368 16.8957 11.9368 17.2272V17.8846C11.9368 18.2095 11.7362 18.4026 11.3981 18.4026H10.153V18.395ZM15.5214 20.2956H17.4013V17.2281C17.4013 16.9032 17.6019 16.7101 17.94 16.7101H18.8075C19.1456 16.7101 19.3462 16.8956 19.3462 17.2281V25.3344C19.3462 25.6584 19.1456 25.8524 18.8075 25.8524H17.9476C17.6104 25.8524 17.4089 25.6669 17.4089 25.3344V22.2584H15.529V25.3269C15.529 25.6509 15.3274 25.8449 14.9902 25.8449H14.1218C13.7847 25.8449 13.5841 25.6584 13.5841 25.3269V17.2272C13.5841 16.9032 13.7847 16.7092 14.1218 16.7092H14.9902C15.3274 16.7092 15.529 16.8957 15.529 17.2272V20.2956H15.5214ZM25.4144 16.7101C25.7516 16.7101 25.9522 16.8956 25.9522 17.2281V17.8846C25.9522 18.2095 25.7516 18.4026 25.4144 18.4026H23.5081V20.3022H24.9152C25.2524 20.3022 25.453 20.4878 25.453 20.8202V21.4767C25.453 21.8016 25.2524 21.9947 24.9152 21.9947H23.5081V24.1666H25.4135C25.7506 24.1666 25.9512 24.3596 25.9512 24.6846V25.341C25.9512 25.6659 25.7506 25.859 25.4135 25.859H22.102C21.7648 25.859 21.5633 25.6735 21.5633 25.341V17.2281C21.5633 16.9032 21.7639 16.7101 22.102 16.7101H25.4144Z" fill="#9F9FA9"/>
</g>
</g>
</g>
<defs>
<clipPath id="clip0_31_1215">
<rect width="219.03" height="64" fill="white"/>
</clipPath>
<clipPath id="clip1_31_1215">
<rect width="219.03" height="64" fill="white"/>
</clipPath>
</defs>
</svg>
